<?xml version="1.0" encoding="utf-8"?>
<!-- Generator: Adobe Illustrator 23.0.3, SVG Export Plug-In . SVG Version: 6.00 Build 0)  -->
<svg version="1.1" id="Layer_1" xmlns="http://www.w3.org/2000/svg" xmlns:xlink="http://www.w3.org/1999/xlink" x="0px" y="0px"
	 viewBox="0 0 3431 615.8" style="enable-background:new 0 0 3431 615.8;" xml:space="preserve">
<style type="text/css">
	.st0{fill:#3C4859;}
</style>
<g id="dark_gray">
	<path class="st0" d="M307.3,277l-155.9-33.5c-21.8-5.1-28.5-10.1-28.5-28.5v-65.6c0-8.3,6.7-15,15-15h148c8.3,0,15,6.7,15,15v60
		h117v-83.6C418,70.4,373,25.4,317.6,25.4l0,0H102.4C47,25.4,2,70.4,2,125.8l0,0v107.6c0,75.5,46.9,104.8,120.7,120.7l155.9,33.5
		c21.8,5,28.5,10.1,28.5,28.5v72.3c0,8.3-6.7,15-15,15l0,0H132c-8.3,0-15-6.7-15-15l0,0v-67H0V512c0,55.4,45,100.4,100.4,100.4l0,0
		h227.2c55.4,0,100.4-45,100.4-100.4l0,0V397.7C428,322.3,381.1,292.9,307.3,277z"/>
	<path class="st0" d="M647,50.4L535,74.6v84.8h-69v94h67v267c0,50.8,41.2,92,92,92l0,0h121v-96h-82.5c-8,0-14.5-6.5-14.5-14.5V253.4
		h97v-94h-99V50.4z"/>
	<path class="st0" d="M1085,159.4H905c-50.8,0-92,41.2-92,92v48h114v-30.5c0-8,6.5-14.5,14.5-14.5h105c8,0,14.5,6.5,14.5,14.5v64.2
		c-57,3.4-103,6.8-146.3,13.4C841.7,357.7,797,391,797,485.8c0,94,34.5,130,121.9,130c72,0,105.7-22.5,142.1-73.8v70.5h116v-361
		C1177,200.6,1135.8,159.4,1085,159.4z M1061,481.6c-34.4,18.4-63.7,35.2-119.1,35.2c-25.2,0-30.2-6.7-30.2-42.8
		c0-32.5,7.9-38.7,29.3-44.4c21.9-5.9,69.9-14.9,119.9-20.2L1061,481.6z"/>
	<path class="st0" d="M1531,159.4h-180c-50.8,0-92,41.2-92,92v269c0,50.8,41.2,92,92,92l0,0h180c50.8,0,92-41.2,92-92l0,0v-74h-116
		v51.5c0,8-6.5,14.5-14.5,14.5h-103c-8,0-14.5-6.5-14.5-14.5v-223c0-8,6.5-14.5,14.5-14.5h103c8,0,14.5,6.5,14.5,14.5v50.5h116v-74
		C1623,200.6,1581.8,159.4,1531,159.4z"/>
	<polygon class="st0" points="2097.5,159.4 1967,159.4 1820,353.4 1820,0 1706,24.6 1706,612.4 1820,612.4 1820,505 1883.7,425.3 
		1981.3,612.4 2105.8,612.4 1956.6,334.7 	"/>
	<polygon class="st0" points="2149,612.4 2265,612.4 2265,0.3 2149,25.2 	"/>
	<path class="st0" d="M2371,159.4h116v453h-116V159.4z M2368,109.4h122V0.4l-122,26.3V109.4z"/>
	<path class="st0" d="M2851.6,155.4c-67.9,0-105.7,17.2-142.6,70.4v-66.4h-116v453h116V293.7c29.5-18.5,68.9-34.3,119.7-34.3
		c24.3,0,29.3,5,29.3,21.8v331.2h116V267.8C2974,189.8,2939.6,155.4,2851.6,155.4z"/>
	<path class="st0" d="M3431,418.4v-167c0-50.8-41.2-92-92-92h-191c-50.8,0-92,41.2-92,92v269c0,50.8,41.2,92,92,92l0,0h191
		c50.8,0,92-41.2,92-92l0,0v-56h-116v39.5c0,8-6.5,14.5-14.5,14.5h-114c-8,0-14.5-6.5-14.5-14.5v-85.5L3431,418.4L3431,418.4z
		 M3186.5,253.4h114c8,0,14.5,6.5,14.5,14.5v72.5h-143v-72.5C3172,259.9,3178.5,253.4,3186.5,253.4z"/>
</g>
</svg>
